<svg width="230" height="230" viewBox="0 0 331 331" fill="none" xmlns="http://www.w3.org/2000/svg">
<rect width="331" height="331" fill="white"/>
<path d="M51.4889 36.7778C47.5873 36.7778 43.8455 38.3278 41.0866 41.0866C38.3278 43.8455 36.7778 47.5873 36.7778 51.4889V110.333H110.333V36.7778H51.4889ZM91.9445 91.9445H55.1667V55.1667H91.9445V91.9445Z" fill="#9B9B9B"/>
<path d="M36.7778 279.511C36.7778 283.413 38.3278 287.155 41.0866 289.914C43.8455 292.672 47.5873 294.222 51.4889 294.222H110.333V220.667H36.7778V279.511ZM55.1667 239.056H91.9445V275.833H55.1667V239.056Z" fill="#9B9B9B"/>
<path d="M220.667 294.222H279.511C283.413 294.222 287.155 292.672 289.914 289.914C292.672 287.155 294.222 283.413 294.222 279.511V220.667H220.667V294.222ZM239.056 239.056H275.833V275.833H239.056V239.056Z" fill="#9B9B9B"/>
<path d="M279.511 36.7778H220.667V110.333H294.222V51.4889C294.222 47.5873 292.672 43.8455 289.914 41.0866C287.155 38.3278 283.413 36.7778 279.511 36.7778V36.7778ZM275.833 91.9445H239.056V55.1667H275.833V91.9445Z" fill="#9B9B9B"/>
<path d="M183.889 91.9446V73.5557H147.111V110.333H165.5V91.9446H183.889Z" fill="#9B9B9B"/>
<path d="M110.333 110.333H128.722V128.722H110.333V110.333Z" fill="#9B9B9B"/>
<path d="M128.722 128.722H165.5V147.111H128.722V128.722Z" fill="#9B9B9B"/>
<path d="M183.889 55.1667V73.5556H202.278V36.7778H128.722V73.5556H147.111V55.1667H183.889Z" fill="#9B9B9B"/>
<path d="M36.7778 128.722H55.1667V165.5H36.7778V128.722Z" fill="#9B9B9B"/>
<path d="M110.333 147.111V165.5H91.9445V128.722H73.5556V165.5H55.1667V183.889H36.7778V202.278H73.5556V183.889H91.9445V202.278H110.333V183.889H128.722V147.111H110.333Z" fill="#9B9B9B"/>
<path d="M183.889 147.111H202.278V165.5H220.667V147.111H239.056V128.722H202.278V91.9443H183.889V110.333H165.5V128.722H183.889V147.111Z" fill="#9B9B9B"/>
<path d="M165.5 275.833H128.722V294.222H202.278V275.833H183.889V257.444H165.5V275.833Z" fill="#9B9B9B"/>
<path d="M202.278 183.889V165.5H183.889V147.111H165.5V165.5H147.111V183.889H165.5V202.278H183.889V183.889H202.278Z" fill="#9B9B9B"/>
<path d="M275.833 183.889H294.222V202.278H275.833V183.889Z" fill="#9B9B9B"/>
<path d="M202.278 183.889H257.444V202.278H202.278V183.889Z" fill="#9B9B9B"/>
<path d="M275.833 128.722H257.445V147.111H239.056V165.5H257.445V183.889H275.833V165.5H294.222V147.111H275.833V128.722Z" fill="#9B9B9B"/>
<path d="M183.889 202.278H202.278V257.444H183.889V202.278Z" fill="#9B9B9B"/>
<path d="M128.722 257.444H147.111V239.056H165.5V220.667H147.111V183.889H128.722V257.444Z" fill="#9B9B9B"/>
</svg>
